<?xml version="1.0" encoding="utf-8"?>
<!-- Generator: Adobe Illustrator 17.0.0, SVG Export Plug-In . SVG Version: 6.00 Build 0)  -->
<!DOCTYPE svg PUBLIC "-//W3C//DTD SVG 1.1//EN" "http://www.w3.org/Graphics/SVG/1.1/DTD/svg11.dtd">
<svg version="1.1" id="Layer_1" xmlns="http://www.w3.org/2000/svg" xmlns:xlink="http://www.w3.org/1999/xlink" x="0px" y="0px"
	 width="2048px" height="2048px" viewBox="0 0 2048 2048" enable-background="new 0 0 2048 2048" xml:space="preserve">
<path fill="#B0D7FF" d="M256,128h992c26.667,0,56,6.667,88,20s57.333,29.333,76,48l312,312c18.667,18.667,34.667,44,48,76
	s20,61.333,20,88v1248c-45.5,0-69.333,0-96,0H352c-26.667,0,23.75,0-40.874,0c-26.399,0,91.495,0-55.126,0V128 M1280,264v376h376
	c-6.667-19.333-14-33-22-41l-313-313C1313,278,1299.333,270.667,1280,264z M1664,1792V768h-416c-26.667,0-49.333-9.333-68-28
	s-28-41.333-28-68V256H384v1536H1664z"/>
</svg>
